<?xml version="1.0" encoding="UTF-8" standalone="no"?>
<svg
   id="Layer_1"
   enable-background="new 0 0 472.002 472.002"
   height="512"
   viewBox="0 0 472.002 472.002"
   width="512"
   version="1.1"
   xmlns="http://www.w3.org/2000/svg"
   xmlns:svg="http://www.w3.org/2000/svg">
  <defs
     id="defs142" />
  <path
     d="m 310.361,95.712 c -4.101,0 -7.593,-3.136 -7.96,-7.298 -3.191,-36.205 14.405,-69.69 45.922,-87.388 3.853,-2.163 8.729,-0.794 10.893,3.059 2.163,3.853 0.794,8.729 -3.059,10.893 -25.958,14.576 -40.449,42.177 -37.818,72.032 0.412,4.667 -3.262,8.702 -7.978,8.702 z"
     fill="#9ceb63"
     id="path103"
     style="fill:#d4eb63;fill-opacity:1" />
  <path
     d="m 308.9,62.572 c 3.23,7.63 0.32,16.43 -6.82,20.64 -34.9,20.58 -68.11,10.34 -72.06,9.03 -30,-9.9 -45.23,-34.38 -52.14,-49.89 -3.44,-7.71 -0.45,-16.77 6.91,-20.92 14.78,-8.35 41.6,-18.93 71.6,-9.03 3.94,1.3 36.73,12.85 52.51,50.17 z"
     fill="#befa91"
     id="path105"
     style="fill:#eafa91;fill-opacity:1" />
  <path
     d="m 350.44,122.532 c 67.52,27.39 117.3,118.71 117.3,191.83 0,87.06 -70.58,157.64 -157.64,157.64 -87.07,0 -157.65,-70.58 -157.65,-157.64 0,-73.12 49.78,-164.44 117.3,-191.83 7.14,-2.9 12.84,-8.68 15.42,-15.94 3.64,-10.25 13.43,-17.59 24.93,-17.59 11.5,0 21.28,7.34 24.93,17.59 2.58,7.26 8.27,13.04 15.41,15.94 z"
     fill="#befa91"
     id="path107"
     style="fill:#eafa91;fill-opacity:1" />
  <path
     d="m 240.436,71.307 c 12.002,6.991 3.731,25.404 -9.515,21.226 -24.682,-7.785 -42.594,-26.732 -53.041,-50.181 -3.44,-7.71 -0.45,-16.77 6.91,-20.92 0.956,-0.54 1.962,-1.089 3.016,-1.641 6.832,-3.58 15.32,0.333 16.841,7.894 2.828,14.055 15.927,32.053 35.789,43.622 z"
     fill="#daffbf"
     id="path109"
     style="fill:#f4ffbf;fill-opacity:1" />
  <path
     d="m 311.742,89.043 c 15.26,0.777 23.283,18.364 14.145,30.61 -1.564,2.096 -2.824,4.43 -3.717,6.939 -2.58,7.26 -8.28,13.04 -15.42,15.94 -57.808,23.45 -109.427,98.685 -116.109,175.207 -2.119,24.268 -37.872,23.002 -38.178,-1.357 -0.927,-73.784 49.393,-166.309 117.287,-193.85 7.14,-2.9 12.84,-8.68 15.42,-15.94 3.759,-10.583 14.06,-18.187 26.572,-17.549 z"
     fill="#daffbf"
     id="path111"
     style="fill:#f4ffbf;fill-opacity:1" />
  <path
     d="m 234.545,452.731 c -4.55,-2.516 -9.857,-5.654 -13.795,-8.469 92.139,-57.999 112.068,-183.333 44.21,-266.9 -6.39,-7.87 -18.15,-8.56 -25.31,-1.39 l -77,77 c 11.094,-35.215 31.371,-70.37 57.65,-96.62 17.32,-16.9 48.08,-12.85 63.29,5.88 71.636,88.21 57.411,218.311 -31.399,289.063 -5.037,4.012 -12.01,4.552 -17.646,1.436 z"
     fill="#9ceb63"
     id="path113"
     style="fill:#d4eb63;fill-opacity:1" />
  <path
     d="m 264.93,177.354 c -6.387,-7.865 -18.142,-8.547 -25.305,-1.384 -45.35,45.35 -136.47,136.473 -230.395,230.395 -7.163,7.162 -6.481,18.918 1.384,25.315 71.016,57.656 175.559,53.43 241.657,-12.668 66.098,-66.098 70.326,-170.642 12.659,-241.658 z"
     fill="#befa91"
     id="path115"
     style="fill:#eafa91;fill-opacity:1" />
  <path
     d="m 221.843,429.152 c 5.333,3.231 5.405,10.899 0.159,14.268 C 157.163,485.063 71.546,481.149 10.615,431.679 2.75,425.282 2.068,413.526 9.231,406.364 c 93.92,-93.92 185.05,-185.039 230.395,-230.395 7.163,-7.162 18.918,-6.481 25.305,1.384 5.799,7.144 10.979,14.628 15.527,22.382 1.924,3.28 1.362,7.448 -1.327,10.137 -22.156,22.156 -48.161,48.162 -76.407,76.418 -49.599,49.598 -26.296,115.345 19.119,142.862 z"
     fill="#daffbf"
     id="path117"
     style="fill:#f4ffbf;fill-opacity:1" />
  <path
     d="m 257.652,318.139 c -9.373,47.225 -43.934,86.533 -90.029,101.932 C 120.425,435.865 66.092,424.981 28.359,387.247 228.33,187.265 220.44,195.039 220.54,195.139 c 33.423,33.398 45.785,79.909 37.112,123 z"
     fill="#ff6d7a"
     id="path119" />
  <path
     d="m 202.723,286.29 c -33.565,33.565 -33.739,74.532 -16.261,106.035 4.853,8.747 1.064,19.687 -8.12,23.651 C 128.788,437.363 68.973,427.86 28.359,387.246 228.672,186.911 220.44,195.039 220.54,195.139 c 9.887,9.879 17.925,20.909 24.125,32.656 3.412,6.464 2.133,14.409 -3.035,19.578 -12.334,12.337 -25.363,25.373 -38.907,38.917 z"
     fill="#ff8c95"
     id="path121" />
  <g
     fill="#ffe773"
     id="g137">
    <path
       d="m 84.09,378.441 c 2.387,3.627 7.414,4.688 11.09,2.21 3.649,-2.405 4.676,-7.437 2.21,-11.09 -2.597,-3.944 -8.445,-4.978 -12.31,-1.22 -2.653,2.654 -3.139,6.913 -0.99,10.1 z"
       id="path123" />
    <path
       d="m 137.4,380.341 c -3.579,-3.583 -9.579,-2.933 -12.31,1.22 -2.469,3.657 -1.434,8.69 2.21,11.09 3.688,2.489 8.706,1.406 11.09,-2.21 2.185,-3.24 1.612,-7.498 -0.99,-10.1 z"
       id="path125" />
    <path
       d="m 135.18,327.351 c -4.086,-2.751 -9.848,-1.162 -11.83,3.59 -0.81,1.941 -0.809,4.178 0,6.12 2.219,5.321 9.07,6.581 13.05,2.6 3.583,-3.578 2.945,-9.564 -1.22,-12.31 z"
       id="path127" />
    <path
       d="m 182.13,298.941 c -1.958,-4.707 -7.706,-6.369 -11.83,-3.59 -3.675,2.42 -4.657,7.462 -2.21,11.09 2.387,3.627 7.414,4.688 11.09,2.21 3.183,-2.098 4.403,-6.226 2.95,-9.71 z"
       id="path129" />
    <path
       d="m 213.18,305.161 c -6.297,1.235 -8.584,9.022 -4.1,13.5 4.493,4.493 12.266,2.186 13.5,-4.1 1.176,-5.46 -3.794,-10.543 -9.4,-9.4 z"
       id="path131" />
    <path
       d="m 181.09,359.562 c -3.532,5.232 0.235,12.44 6.65,12.44 4.396,0 8,-3.558 8,-8 0,-3.76 -2.646,-7.095 -6.44,-7.84 -3.03,-0.618 -6.398,0.643 -8.21,3.4 z"
       id="path133" />
    <path
       d="m 216.13,255.941 c -1.971,-4.737 -7.734,-6.35 -11.83,-3.59 -3.675,2.42 -4.657,7.462 -2.21,11.09 2.387,3.627 7.414,4.688 11.09,2.21 3.181,-2.096 4.404,-6.224 2.95,-9.71 z"
       id="path135" />
  </g>
</svg>
